<svg width="56" height="52" viewBox="0 0 56 52" fill="none" xmlns="http://www.w3.org/2000/svg">
<g id="Group 9">
<g id="Group">
<g id="Group_2">
<g id="Group_3">
<path id="Vector" d="M0.799988 44.2038H1.65561V37.3933H0.799988V44.2038Z" fill="white"/>
</g>
</g>
</g>
<g id="Group_4">
<g id="Group_5">
<g id="Group_6">
<path id="Vector_2" d="M10.0515 37.3933V42.6471L6.23719 37.3933H5.45935V44.2038H6.29626V38.8919L10.1677 44.2038H10.8875V37.3933H10.0515Z" fill="white"/>
</g>
</g>
</g>
<g id="Group_7">
<g id="Group_8">
<g id="Group_9">
<path id="Vector_3" d="M19.2563 37.3933L17.0872 42.9297L14.8876 37.3933H13.9444L16.6973 44.2038H17.486L20.1907 37.3933H19.2563Z" fill="white"/>
</g>
</g>
</g>
<g id="Group_10">
<g id="Group_11">
<g id="Group_12">
<path id="Vector_4" d="M23.2742 44.2038H24.1298V37.3933H23.2742V44.2038Z" fill="white"/>
</g>
</g>
</g>
<g id="Group_13">
<g id="Group_14">
<g id="Group_15">
<path id="Vector_5" d="M29.9678 44.2913C31.3196 44.2913 32.3712 43.5617 32.3712 42.2768C32.3712 40.857 31.1641 40.5745 30.0938 40.3116C29.2185 40.1078 28.4308 39.9128 28.4308 39.1734C28.4308 38.5216 29.0531 38.1326 29.8801 38.1326C30.7072 38.1326 31.3295 38.5708 31.3295 39.3289H32.1762C32.1762 38.0942 31.3108 37.3154 29.8998 37.3154C28.4889 37.3154 27.5841 38.0253 27.5841 39.2029C27.5841 40.5646 28.7419 40.8472 29.7925 41.0904C30.6777 41.3041 31.485 41.4892 31.485 42.2867C31.485 43.0074 30.8145 43.4544 29.9579 43.4544C29.0147 43.4544 28.3235 42.9582 28.3235 42.1124H27.4482C27.4482 43.4544 28.4692 44.2913 29.9678 44.2913Z" fill="white"/>
</g>
</g>
</g>
<g id="Group_16">
<g id="Group_17">
<g id="Group_18">
<path id="Vector_6" d="M35.6891 44.2038H36.5447V37.3933H35.6891V44.2038Z" fill="white"/>
</g>
</g>
</g>
<g id="Group_19">
<g id="Group_20">
<g id="Group_21">
<path id="Vector_7" d="M43.453 44.3209C45.5157 44.3209 47.0133 42.8125 47.0133 40.8078C47.0133 38.7943 45.5157 37.2859 43.453 37.2859C41.3902 37.2859 39.8818 38.7943 39.8818 40.8078C39.8818 42.8125 41.3902 44.3209 43.453 44.3209ZM43.453 43.484C41.9062 43.484 40.7581 42.3261 40.7581 40.8078C40.7581 39.2807 41.9062 38.1228 43.453 38.1228C44.9998 38.1228 46.1478 39.2708 46.1478 40.8078C46.1478 42.3359 44.9998 43.484 43.453 43.484Z" fill="white"/>
</g>
</g>
</g>
<g id="Group_22">
<g id="Group_23">
<g id="Group_24">
<path id="Vector_8" d="M54.9527 37.3933V42.6471L51.1384 37.3933H50.3605V44.2038H51.1974V38.8919L55.0689 44.2038H55.7886V37.3933H54.9527Z" fill="white"/>
</g>
</g>
</g>
<g id="Group_25">
<g id="Group_26">
<g id="Group_27">
<path id="Vector_9" d="M14.0164 51.699C14.5501 51.699 14.9656 51.4115 14.9656 50.9044C14.9656 50.3432 14.489 50.2319 14.0666 50.1276C13.721 50.0468 13.4099 49.97 13.4099 49.6786C13.4099 49.4216 13.6551 49.267 13.982 49.267C14.3088 49.267 14.554 49.4403 14.554 49.7396H14.8888C14.8888 49.2523 14.5461 48.9451 13.9898 48.9451C13.4326 48.9451 13.0751 49.2257 13.0751 49.6904C13.0751 50.228 13.532 50.3393 13.9475 50.4358C14.297 50.5194 14.616 50.5923 14.616 50.9074C14.616 51.1919 14.3502 51.3692 14.0125 51.3692C13.6403 51.3692 13.3676 51.1732 13.3676 50.8385H13.022C13.022 51.3692 13.4247 51.699 14.0164 51.699Z" fill="white"/>
</g>
</g>
</g>
<g id="Group_28">
<g id="Group_29">
<g id="Group_30">
<path id="Vector_10" d="M21.2619 51.9876L20.739 51.384C21.0354 51.131 21.2117 50.7578 21.2117 50.3236C21.2117 49.529 20.6199 48.9333 19.8056 48.9333C18.9914 48.9333 18.3957 49.529 18.3957 50.3236C18.3957 51.1152 18.9914 51.7109 19.8056 51.7109C20.0518 51.7109 20.2822 51.6568 20.4781 51.5573L20.8473 51.9876H21.2619ZM19.8056 51.3801C19.1952 51.3801 18.7423 50.9232 18.7423 50.3236C18.7423 49.721 19.1952 49.2642 19.8056 49.2642C20.4171 49.2642 20.87 49.7171 20.87 50.3236C20.87 50.6505 20.7351 50.935 20.5165 51.1231L20.0321 50.5619H19.6215L20.2517 51.2925C20.1168 51.3496 19.9671 51.3801 19.8056 51.3801Z" fill="white"/>
</g>
</g>
</g>
<g id="Group_31">
<g id="Group_32">
<g id="Group_33">
<path id="Vector_11" d="M25.862 51.7108C26.4655 51.7108 26.9145 51.2766 26.9145 50.6661V48.9756H26.5768V50.6386C26.5768 51.0846 26.2775 51.38 25.862 51.38C25.4435 51.38 25.1481 51.0846 25.1481 50.6386V48.9756H24.8055V50.6661C24.8055 51.2766 25.2554 51.7108 25.862 51.7108Z" fill="white"/>
</g>
</g>
</g>
<g id="Group_34">
<g id="Group_35">
<g id="Group_36">
<path id="Vector_12" d="M32.5699 51.6645H32.9352L31.8059 48.9756H31.4908L30.392 51.6645H30.7494L31.0103 51.0226H32.305L32.5699 51.6645ZM31.6523 49.4403L32.179 50.7114H31.1373L31.6523 49.4403Z" fill="white"/>
</g>
</g>
</g>
<g id="Group_37">
<g id="Group_38">
<g id="Group_39">
<path id="Vector_13" d="M38.0093 51.6645H38.3904L37.7445 50.5736C38.0979 50.4741 38.3401 50.1778 38.3401 49.7977C38.3401 49.3212 37.968 48.9756 37.4638 48.9756H36.4428V51.6645H36.7805V50.6159H37.391L38.0093 51.6645ZM36.7805 49.2985H37.4451C37.775 49.2985 37.9945 49.5092 37.9945 49.7977C37.9945 50.0852 37.775 50.293 37.4451 50.293H36.7805V49.2985Z" fill="white"/>
</g>
</g>
</g>
<g id="Group_40">
<g id="Group_41">
<g id="Group_42">
<path id="Vector_14" d="M42.3276 51.3416V50.4387H43.4107V50.1276H42.3276V49.2985H43.5111V48.9756H41.9899V51.6645H43.5535V51.3416H42.3276Z" fill="white"/>
</g>
</g>
</g>
<path id="Vector_15" d="M16.079 3.00269H22.4897L21.6469 3.82187H16.4886V8.97429L15.6694 9.82302V3.00269H16.079ZM24.8222 3.00269H31.7676L32.5868 3.82187H24.003L24.8222 3.00269ZM34.1238 3.00269H40.9441V9.82302L40.1013 8.9802V3.82187H34.9489L34.1238 3.00269ZM40.9441 12.1565V19.1009L40.1013 19.9201V11.3373L40.9441 12.1565ZM40.9441 21.4581V28.2784H34.1238L34.9429 27.4356H40.0954V22.2832L40.9441 21.4581ZM31.7676 28.2784H24.8222L24.003 27.4356H32.5868L31.7676 28.2784ZM22.4897 28.2784H15.6694V21.4581L16.4886 22.2772V27.4297H21.641L22.4897 28.2784ZM15.6694 19.1009V12.1565L16.4886 11.3373V19.9201L15.6694 19.1009Z" fill="white"/>
<g id="Group_43">
<path id="Vector_16" d="M31.4584 0.931001L43.1466 12.6192V18.6676L31.3285 30.4799H25.285L13.4668 18.6617C13.4668 16.6374 13.4668 14.614 13.4668 12.6133C17.3904 8.67194 21.3377 4.72467 25.285 0.800049H31.3344L31.4584 0.931001ZM42.3038 12.951L30.972 1.61924H25.6178L14.286 12.951V18.3053L25.6119 29.6312H30.9661L42.292 18.3053V12.951H42.3038Z" fill="white"/>
</g>
<path id="Vector_17" d="M28.5854 3.28822L31.5835 6.28535H30.402L28.3067 4.16058L26.182 6.28535H25.03L28.3067 3.00269L28.5854 3.28822ZM33.2514 7.95326L35.9935 10.6964V11.8474L32.0699 7.95326H33.2514ZM37.6614 12.3584L40.9441 15.64L37.6614 18.9227V17.7422L39.7636 15.64L37.6614 13.5153V12.3584ZM35.9935 20.5847L33.2514 23.3278H32.0699L35.9935 19.4042V20.5847ZM31.5894 24.9957L28.3067 28.2784L25.0241 24.9957H26.1761L28.3067 27.0969L30.4079 24.9957H31.5894ZM23.3621 23.3278L20.6199 20.5847V19.4042L24.514 23.3278H23.3621ZM18.952 18.9227L15.6694 15.64L18.952 12.3584V13.5094L16.8263 15.64L18.952 17.7422V18.9227ZM20.6199 10.6964L23.3621 7.95326H24.514L20.6199 11.8474V10.6964Z" fill="white"/>
<path id="Vector_18" d="M37.2284 9.92456V21.5114L34.3022 24.4553L33.994 24.5567H22.5903L22.3117 24.4553L19.3618 21.5054V9.74635L22.4121 6.69507H34.1771L37.2284 9.74635V9.92456ZM36.4033 21.1786V10.1028L33.8394 7.51426H22.7685L20.181 10.1028V21.1727L22.7685 23.7375H33.8394L36.4033 21.1786Z" fill="white"/>
<path id="Vector_19" d="M28.5848 7.15784L31.7375 10.3105L28.3062 13.7704L24.8453 10.3105L28.3062 6.87329L28.5848 7.15784ZM30.5855 10.3105L28.3062 8.00066L25.9973 10.3105L28.3062 12.6194L30.5855 10.3105Z" fill="white"/>
<path id="Vector_20" d="M36.7882 15.9194L33.6128 19.0712L30.1756 15.6398L33.6128 12.1799L37.0727 15.6398L36.7882 15.9194ZM33.6128 17.9497L35.9217 15.6398L33.6128 13.3309L31.3276 15.6398L33.6128 17.9497Z" fill="white"/>
<path id="Vector_21" d="M28.0275 24.1233L24.8511 20.947L28.312 17.5107L31.7493 20.947L28.3061 24.4079L28.0275 24.1233ZM25.9972 20.947L28.3061 23.2559L30.5855 20.947L28.3061 18.6617L25.9972 20.947Z" fill="white"/>
<path id="Vector_22" d="M19.8243 15.3614L22.976 12.186L26.4369 15.6469L22.976 19.0832L19.5388 15.64L19.8243 15.3614ZM22.976 13.3311L20.6671 15.64L22.976 17.9499L25.2849 15.64L22.976 13.3311Z" fill="white"/>
<path id="Vector_23" d="M28.5844 12.8741L31.3512 15.6399L28.3058 18.6912L25.2545 15.6399L28.3058 12.5896L28.5844 12.8741ZM30.2051 15.6399L28.3058 13.7406L26.4065 15.6399L28.3058 17.5402L30.2051 15.6399Z" fill="white"/>
</g>
</svg>
