<svg width="16" height="17" viewBox="0 0 16 17" fill="none" xmlns="http://www.w3.org/2000/svg">
<g id="ri:instagram-line">
<path id="Vector" d="M7.9375 6.73144C7.41535 6.73144 6.9146 6.93887 6.54538 7.30808C6.17617 7.67729 5.96875 8.17805 5.96875 8.70019C5.96875 9.22234 6.17617 9.7231 6.54538 10.0923C6.9146 10.4615 7.41535 10.6689 7.9375 10.6689C8.45964 10.6689 8.9604 10.4615 9.32962 10.0923C9.69883 9.7231 9.90625 9.22234 9.90625 8.70019C9.90625 8.17805 9.69883 7.67729 9.32962 7.30808C8.9604 6.93887 8.45964 6.73144 7.9375 6.73144ZM7.9375 5.41895C8.80774 5.41895 9.64234 5.76465 10.2577 6.38C10.873 6.99535 11.2187 7.82995 11.2187 8.70019C11.2187 9.57044 10.873 10.405 10.2577 11.0204C9.64234 11.6357 8.80774 11.9814 7.9375 11.9814C7.06726 11.9814 6.23266 11.6357 5.61731 11.0204C5.00195 10.405 4.65625 9.57044 4.65625 8.70019C4.65625 7.82995 5.00195 6.99535 5.61731 6.38C6.23266 5.76465 7.06726 5.41895 7.9375 5.41895ZM12.2031 5.25488C12.2031 5.47244 12.1167 5.68109 11.9629 5.83493C11.809 5.98877 11.6004 6.07519 11.3828 6.07519C11.1653 6.07519 10.9566 5.98877 10.8028 5.83493C10.6489 5.68109 10.5625 5.47244 10.5625 5.25488C10.5625 5.03732 10.6489 4.82867 10.8028 4.67483C10.9566 4.521 11.1653 4.43457 11.3828 4.43457C11.6004 4.43457 11.809 4.521 11.9629 4.67483C12.1167 4.82867 12.2031 5.03732 12.2031 5.25488ZM7.9375 3.4502C6.31394 3.4502 6.04881 3.45479 5.29347 3.48826C4.77897 3.51254 4.43378 3.58145 4.11353 3.70613C3.84553 3.80453 3.60324 3.96224 3.40478 4.16748C3.19938 4.36593 3.04145 4.6082 2.94278 4.87623C2.81809 5.19779 2.74919 5.54232 2.72556 6.05616C2.69144 6.78066 2.6875 7.03398 2.6875 8.70019C2.6875 10.3238 2.69209 10.5889 2.72556 11.3442C2.74984 11.8581 2.81875 12.2039 2.94278 12.5235C3.05434 12.809 3.18559 13.0144 3.40347 13.2323C3.62462 13.4528 3.83003 13.5847 4.11222 13.6936C4.43641 13.8189 4.78159 13.8885 5.29347 13.9121C6.01797 13.9463 6.27128 13.9502 7.9375 13.9502C9.56106 13.9502 9.82619 13.9456 10.5815 13.9121C11.0947 13.8878 11.4406 13.8189 11.7608 13.6949C12.0284 13.596 12.2705 13.4386 12.4696 13.2342C12.6907 13.0131 12.8226 12.8077 12.9316 12.5255C13.0562 12.2019 13.1258 11.8561 13.1494 11.3442C13.1836 10.6197 13.1875 10.3664 13.1875 8.70019C13.1875 7.07663 13.1829 6.81151 13.1494 6.05616C13.1252 5.54298 13.0562 5.19648 12.9316 4.87623C12.8327 4.60848 12.675 4.36629 12.4702 4.16748C12.2719 3.96197 12.0296 3.80402 11.7615 3.70548C11.4399 3.58079 11.0947 3.51188 10.5815 3.48826C9.85703 3.45413 9.60372 3.4502 7.9375 3.4502ZM7.9375 2.1377C9.72053 2.1377 9.943 2.14426 10.6426 2.17707C11.3415 2.20988 11.8172 2.31948 12.2359 2.48223C12.6691 2.64891 13.0339 2.87466 13.3988 3.23888C13.7325 3.56694 13.9907 3.96377 14.1555 4.40176C14.3176 4.81979 14.4278 5.29623 14.4606 5.99513C14.4915 6.69469 14.5 6.91716 14.5 8.70019C14.5 10.4832 14.4934 10.7057 14.4606 11.4053C14.4278 12.1042 14.3176 12.5799 14.1555 12.9986C13.9912 13.4369 13.7329 13.8338 13.3988 14.1615C13.0707 14.4951 12.6739 14.7533 12.2359 14.9182C11.8179 15.0803 11.3415 15.1905 10.6426 15.2233C9.943 15.2542 9.72053 15.2627 7.9375 15.2627C6.15447 15.2627 5.932 15.2561 5.23244 15.2233C4.53353 15.1905 4.05775 15.0803 3.63906 14.9182C3.2009 14.7538 2.804 14.4955 2.47619 14.1615C2.14242 13.8335 1.8842 13.4367 1.71953 12.9986C1.55678 12.5806 1.44719 12.1042 1.41437 11.4053C1.38353 10.7057 1.375 10.4832 1.375 8.70019C1.375 6.91716 1.38156 6.69469 1.41437 5.99513C1.44719 5.29557 1.55678 4.82045 1.71953 4.40176C1.88375 3.9635 2.14203 3.56656 2.47619 3.23888C2.8041 2.905 3.20097 2.64677 3.63906 2.48223C4.05775 2.31948 4.53287 2.20988 5.23244 2.17707C5.932 2.14623 6.15447 2.1377 7.9375 2.1377Z" fill="white"/>
</g>
</svg>
