<svg width="17" height="17" viewBox="0 0 17 17" fill="none" xmlns="http://www.w3.org/2000/svg">
<g id="ri:twitter-fill">
<path id="Vector" d="M15.2813 4.53674C14.7803 4.75836 14.249 4.9039 13.705 4.96856C14.2784 4.62562 14.7076 4.08591 14.9125 3.44999C14.3744 3.77024 13.7844 3.99468 13.1695 4.11609C12.7565 3.67416 12.209 3.38106 11.6122 3.28238C11.0154 3.18369 10.4027 3.28494 9.86939 3.57039C9.33607 3.85583 8.912 4.30947 8.66311 4.8608C8.41421 5.41212 8.35443 6.03023 8.49306 6.61903C7.40179 6.56433 6.33422 6.28074 5.35966 5.78668C4.3851 5.29262 3.52533 4.59912 2.83619 3.75121C2.59225 4.1702 2.46406 4.64649 2.46475 5.13131C2.46475 6.08287 2.94906 6.92353 3.68537 7.41571C3.24963 7.40199 2.82348 7.28432 2.44244 7.07249V7.10662C2.44257 7.74036 2.66187 8.35455 3.06315 8.84506C3.46443 9.33557 4.023 9.67221 4.64416 9.7979C4.23965 9.90752 3.81551 9.92368 3.40384 9.84515C3.57897 10.3906 3.92032 10.8677 4.38008 11.2096C4.83983 11.5514 5.39499 11.7409 5.96781 11.7516C5.3985 12.1987 4.74665 12.5292 4.04951 12.7242C3.35238 12.9193 2.62365 12.975 1.90497 12.8882C3.15952 13.695 4.61994 14.1233 6.11153 14.1219C11.1601 14.1219 13.9209 9.93965 13.9209 6.31256C13.9209 6.19443 13.9176 6.07499 13.9124 5.95818C14.4498 5.56979 14.9135 5.08866 15.282 4.5374L15.2813 4.53674Z" fill="white"/>
</g>
</svg>
