<svg width="104" height="199" viewBox="0 0 104 199" fill="none" xmlns="http://www.w3.org/2000/svg">
<path id="Vector" d="M53.7792 101.838L99.9317 149.85C100.142 150.069 100.388 150.123 100.672 150.012C100.954 149.904 101.101 149.697 101.11 149.393L103.794 52.1687C103.798 51.977 103.736 51.8125 103.602 51.6725L54.417 0.505958C54.2062 0.286676 53.9559 0.232489 53.6738 0.340958C53.3918 0.449427 53.2452 0.656466 53.234 0.956894L50.5972 96.5497L4.44728 48.5403C4.23659 48.3159 3.98626 48.2617 3.70156 48.3727C3.41432 48.481 3.27023 48.6907 3.26165 48.9938L0.579616 146.221C0.573187 146.415 0.639916 146.58 0.771976 146.717L49.9593 197.887C50.1701 198.106 50.4153 198.16 50.7 198.049C50.982 197.94 51.1287 197.733 51.1372 197.43L53.7792 101.838ZM54.5641 2.63673L102.408 52.4083L99.7846 147.719L51.9407 97.9473L54.5641 2.63673ZM1.96069 145.976L4.5944 50.6711L52.4383 100.443L49.8122 195.756L1.96069 145.976Z" fill="white"/>
</svg>
