<svg width="155" height="155" viewBox="0 0 155 155" fill="none" xmlns="http://www.w3.org/2000/svg">
<path id="Vector" d="M77.4648 154.195C34.952 154.195 0.369141 119.609 0.369141 77.0997C0.369141 34.5909 34.952 0 77.4648 0C119.978 0 154.56 34.5869 154.56 77.0997C154.56 119.613 119.974 154.195 77.4648 154.195ZM77.4648 1.51373C35.7911 1.51373 1.87885 35.426 1.87885 77.0997C1.87885 118.777 35.7911 152.682 77.4648 152.682C119.142 152.682 153.047 118.777 153.047 77.0997C153.047 35.426 119.142 1.51373 77.4648 1.51373ZM77.4648 138.62C43.5405 138.62 15.9481 111.02 15.9481 77.0997C15.9481 43.1794 43.5405 15.583 77.4648 15.583C111.389 15.583 138.986 43.1753 138.986 77.0997C138.986 111.024 111.385 138.62 77.4648 138.62ZM77.4648 17.0967C44.3796 17.0967 17.4618 44.0145 17.4618 77.0997C17.4618 110.189 44.3796 137.107 77.4648 137.107C110.554 137.107 137.472 110.185 137.472 77.0997C137.472 44.0185 110.55 17.0967 77.4648 17.0967ZM77.4648 123.037C75.9631 123.037 74.4614 122.965 72.9638 122.817C71.4661 122.668 69.9805 122.451 68.5029 122.154C67.0293 121.861 65.5678 121.496 64.1304 121.062C62.6889 120.624 61.2756 120.118 59.8863 119.54C58.493 118.966 57.1359 118.324 55.8069 117.613C54.4819 116.906 53.193 116.131 51.9402 115.296C50.6915 114.461 49.4829 113.566 48.3185 112.61C47.1581 111.658 46.0419 110.647 44.9779 109.583C43.9139 108.519 42.9061 107.406 41.9504 106.242C40.9948 105.082 40.0994 103.873 39.2643 102.62C38.4291 101.372 37.6582 100.083 36.9475 98.7536C36.2368 97.4286 35.5944 96.0675 35.0202 94.6782C34.442 93.2889 33.9361 91.8756 33.4985 90.4341C33.0648 88.9927 32.6995 87.5352 32.4063 86.0616C32.1092 84.584 31.8924 83.0984 31.7438 81.6007C31.5953 80.1031 31.523 78.6014 31.523 77.0957C31.523 75.594 31.5953 74.0923 31.7438 72.5946C31.8884 71.097 32.1092 69.6114 32.4023 68.1338C32.6995 66.6602 33.0608 65.2027 33.4985 63.7612C33.9361 62.3238 34.442 60.9064 35.0162 59.5172C35.5944 58.1279 36.2368 56.7668 36.9475 55.4417C37.6542 54.1127 38.4291 52.8238 39.2643 51.5751C40.0994 50.3224 40.9948 49.1178 41.9504 47.9534C42.9021 46.789 43.9139 45.6768 44.9779 44.6128C46.0419 43.5488 47.1541 42.5409 48.3185 41.5853C49.4789 40.6297 50.6875 39.7343 51.9402 38.8992C53.189 38.064 54.4778 37.2891 55.8069 36.5824C57.1319 35.8717 58.493 35.2293 59.8823 34.6551C61.2715 34.0769 62.6849 33.571 64.1263 33.1334C65.5678 32.6997 67.0253 32.3343 68.4989 32.0412C69.9765 31.7441 71.4621 31.5233 72.9598 31.3787C74.4574 31.2302 75.9591 31.1579 77.4608 31.1579C78.9665 31.1579 80.4682 31.2302 81.9658 31.3787C83.4635 31.5233 84.9491 31.7441 86.4267 32.0372C87.9003 32.3343 89.3578 32.6957 90.7992 33.1334C92.2367 33.571 93.6541 34.0769 95.0433 34.6511C96.4326 35.2293 97.7937 35.8717 99.1187 36.5824C100.448 37.2891 101.737 38.064 102.985 38.8992C104.238 39.7343 105.443 40.6297 106.607 41.5853C107.771 42.5409 108.884 43.5488 109.948 44.6128C111.012 45.6768 112.02 46.789 112.975 47.9534C113.931 49.1178 114.826 50.3224 115.661 51.5751C116.496 52.8279 117.271 54.1167 117.978 55.4417C118.689 56.7708 119.331 58.1279 119.905 59.5172C120.484 60.9104 120.989 62.3238 121.427 63.7652C121.861 65.2027 122.226 66.6602 122.519 68.1378C122.812 69.6154 123.033 71.101 123.182 72.5987C123.33 74.0963 123.403 75.598 123.403 77.0997C123.403 78.6054 123.326 80.1071 123.178 81.6007C123.029 83.0984 122.808 84.584 122.511 86.0576C122.218 87.5352 121.853 88.9927 121.415 90.4301C120.977 91.8676 120.467 93.2849 119.893 94.6742C119.315 96.0634 118.673 97.4206 117.962 98.7456C117.255 100.071 116.48 101.359 115.645 102.608C114.81 103.861 113.915 105.065 112.959 106.23C112.007 107.39 110.996 108.507 109.932 109.567C108.872 110.631 107.755 111.642 106.595 112.594C105.431 113.55 104.226 114.445 102.973 115.28C101.725 116.115 100.436 116.89 99.1107 117.597C97.7857 118.308 96.4286 118.95 95.0393 119.528C93.65 120.102 92.2327 120.612 90.7952 121.05C89.3578 121.488 87.9003 121.853 86.4227 122.146C84.9491 122.443 83.4635 122.664 81.9658 122.813C80.4722 122.961 78.9705 123.037 77.4648 123.037ZM77.4648 32.6756C76.0113 32.6756 74.5578 32.7439 73.1123 32.8884C71.6629 33.029 70.2254 33.2418 68.8 33.5268C67.3706 33.8119 65.9613 34.1653 64.568 34.5869C63.1747 35.0084 61.8096 35.4983 60.4645 36.0564C59.1194 36.6105 57.8064 37.2329 56.5216 37.9195C55.2367 38.6061 53.992 39.3529 52.7834 40.1599C51.5708 40.971 50.4064 41.8343 49.2782 42.7578C48.1539 43.6813 47.0778 44.6569 46.05 45.6848C45.0181 46.7127 44.0424 47.7928 43.1189 48.9171C42.1994 50.0413 41.3321 51.2097 40.5251 52.4183C39.714 53.6269 38.9672 54.8756 38.2806 56.1565C37.594 57.4413 36.9756 58.7543 36.4175 60.0994C35.8594 61.4445 35.3696 62.8136 34.948 64.2029C34.5264 65.5962 34.173 67.0055 33.8879 68.4349C33.6069 69.8603 33.3901 71.2977 33.2495 72.7472C33.105 74.1927 33.0367 75.6462 33.0367 77.0997C33.0367 78.5572 33.105 80.0067 33.2495 81.4562C33.3901 82.9057 33.6029 84.3431 33.8879 85.7685C34.173 87.1939 34.5264 88.6072 34.948 89.9965C35.3696 91.3898 35.8594 92.7589 36.4175 94.104C36.9716 95.4451 37.594 96.7621 38.2806 98.0429C38.9672 99.3278 39.714 100.572 40.521 101.785C41.3321 102.994 42.1954 104.162 43.1189 105.286C44.0424 106.411 45.0181 107.487 46.0459 108.515C47.0778 109.546 48.1539 110.522 49.2782 111.446C50.4024 112.369 51.5708 113.232 52.7794 114.039C53.988 114.851 55.2367 115.597 56.5176 116.284C57.8024 116.971 59.1154 117.589 60.4605 118.147C61.8056 118.705 63.1747 119.195 64.564 119.617C65.9573 120.038 67.3666 120.391 68.796 120.677C70.2214 120.958 71.6588 121.17 73.1083 121.315C74.5578 121.455 76.0073 121.528 77.4608 121.528C78.9183 121.528 80.3678 121.455 81.8173 121.315C83.2668 121.17 84.7042 120.958 86.1296 120.677C87.559 120.391 88.9683 120.038 90.3576 119.617C91.7508 119.195 93.12 118.705 94.4651 118.147C95.8102 117.589 97.1232 116.971 98.404 116.284C99.6889 115.597 100.934 114.851 102.146 114.043C103.355 113.232 104.523 112.369 105.647 111.446C106.772 110.522 107.848 109.546 108.876 108.519C109.908 107.487 110.883 106.411 111.807 105.286C112.73 104.162 113.593 102.994 114.405 101.785C115.212 100.572 115.958 99.3278 116.645 98.0429C117.332 96.7621 117.95 95.4491 118.508 94.104C119.066 92.7589 119.556 91.3898 119.978 89.9965C120.399 88.6072 120.753 87.1939 121.038 85.7685C121.319 84.3431 121.536 82.9057 121.676 81.4562C121.821 80.0067 121.889 78.5572 121.889 77.0997C121.889 75.6462 121.817 74.1967 121.672 72.7472C121.527 71.3018 121.315 69.8643 121.03 68.4389C120.745 67.0095 120.391 65.6042 119.966 64.2109C119.544 62.8177 119.054 61.4525 118.496 60.1074C117.938 58.7663 117.316 57.4534 116.629 56.1685C115.942 54.8877 115.196 53.6389 114.388 52.4304C113.581 51.2218 112.714 50.0574 111.791 48.9331C110.867 47.8089 109.891 46.7288 108.864 45.7009C107.836 44.673 106.76 43.6973 105.635 42.7738C104.511 41.8503 103.347 40.9871 102.134 40.176C100.926 39.3689 99.6809 38.6221 98.4 37.9355C97.1151 37.2489 95.8022 36.6266 94.4611 36.0685C93.116 35.5103 91.7468 35.0205 90.3576 34.5989C88.9643 34.1773 87.555 33.82 86.1296 33.5349C84.7042 33.2498 83.2668 33.037 81.8213 32.8924C80.3718 32.7479 78.9223 32.6756 77.4648 32.6756ZM77.4648 107.459C76.4731 107.459 75.4813 107.41 74.4895 107.31C73.5018 107.214 72.5181 107.069 71.5424 106.876C70.5667 106.68 69.6031 106.439 68.6515 106.15C67.6999 105.86 66.7643 105.527 65.8489 105.146C64.9294 104.768 64.03 104.343 63.1547 103.873C62.2753 103.403 61.4241 102.893 60.597 102.343C59.7699 101.789 58.9708 101.199 58.2039 100.568C57.437 99.9341 56.6982 99.2676 55.9956 98.5649C55.2929 97.8622 54.6264 97.1275 53.996 96.3565C53.3656 95.5896 52.7714 94.7906 52.2213 93.9635C51.6672 93.1404 51.1573 92.2851 50.6875 91.4098C50.2177 90.5345 49.7961 89.6351 49.4147 88.7156C49.0332 87.7962 48.7 86.8606 48.4109 85.909C48.1218 84.9574 47.8809 83.9978 47.6882 83.0221C47.4914 82.0464 47.3469 81.0627 47.2505 80.0749C47.1501 79.0832 47.1019 78.0914 47.1019 77.0957C47.1019 76.1039 47.1501 75.1122 47.2505 74.1204C47.3469 73.1327 47.4914 72.149 47.6841 71.1733C47.8809 70.1976 48.1218 69.2379 48.4109 68.2863C48.7 67.3347 49.0332 66.3992 49.4147 65.4797C49.7921 64.5602 50.2177 63.6649 50.6875 62.7855C51.1573 61.9102 51.6672 61.059 52.2173 60.2319C52.7714 59.4047 53.3616 58.6057 53.992 57.8388C54.6224 57.0679 55.2929 56.3331 55.9956 55.6305C56.6982 54.9278 57.433 54.2613 58.1999 53.6309C58.9708 52.9965 59.7699 52.4063 60.593 51.8522C61.4201 51.3021 62.2753 50.7922 63.1507 50.3224C64.026 49.8526 64.9254 49.431 65.8448 49.0496C66.7643 48.6681 67.6958 48.3349 68.6474 48.0458C69.599 47.7567 70.5627 47.5158 71.5384 47.319C72.5141 47.1263 73.4978 46.9817 74.4855 46.8854C75.4773 46.785 76.469 46.7368 77.4608 46.7368C78.4566 46.7368 79.4483 46.785 80.4401 46.8854C81.4278 46.9817 82.4115 47.1263 83.3872 47.319C84.3589 47.5158 85.3225 47.7567 86.2741 48.0458C87.2257 48.3349 88.1613 48.6681 89.0807 49.0496C90.0002 49.427 90.8956 49.8526 91.7749 50.3224C92.6503 50.7922 93.5015 51.3021 94.3286 51.8522C95.1557 52.4063 95.9548 52.9965 96.7217 53.6269C97.4926 54.2613 98.2274 54.9278 98.93 55.6305C99.6327 56.3331 100.299 57.0679 100.93 57.8388C101.56 58.6057 102.154 59.4047 102.704 60.2319C103.258 61.059 103.768 61.9102 104.238 62.7855C104.708 63.6649 105.129 64.5602 105.511 65.4797C105.892 66.3992 106.226 67.3347 106.515 68.2863C106.804 69.2379 107.045 70.2016 107.237 71.1773C107.434 72.153 107.579 73.1367 107.675 74.1244C107.775 75.1162 107.824 76.1079 107.824 77.0997C107.82 78.0955 107.771 79.0872 107.675 80.0749C107.575 81.0627 107.43 82.0464 107.233 83.0221C107.041 83.9938 106.796 84.9574 106.507 85.909C106.218 86.8606 105.884 87.7962 105.503 88.7116C105.121 89.6311 104.696 90.5265 104.23 91.4058C103.76 92.2811 103.25 93.1323 102.696 93.9595C102.142 94.7826 101.552 95.5816 100.922 96.3485C100.291 97.1194 99.6246 97.8542 98.922 98.5569C98.2193 99.2595 97.4845 99.926 96.7136 100.556C95.9467 101.187 95.1477 101.777 94.3246 102.331C93.4975 102.885 92.6462 103.395 91.7709 103.861C90.8916 104.331 89.9962 104.756 89.0767 105.138C88.1613 105.519 87.2257 105.852 86.2741 106.142C85.3225 106.431 84.3589 106.676 83.3872 106.868C82.4115 107.065 81.4278 107.21 80.4401 107.31C79.4523 107.406 78.4606 107.455 77.4648 107.459ZM77.4648 48.2546C76.5212 48.2546 75.5777 48.3027 74.6381 48.3951C73.6986 48.4874 72.763 48.624 71.8395 48.8087C70.912 48.9934 69.9966 49.2222 69.0931 49.4953C68.1857 49.7723 67.2983 50.0895 66.427 50.4509C65.5517 50.8122 64.7005 51.2138 63.8654 51.6594C63.0342 52.1051 62.2231 52.591 61.4402 53.117C60.6532 53.6389 59.8943 54.2011 59.1636 54.8033C58.4328 55.4016 57.7342 56.036 57.0676 56.7025C56.3971 57.3731 55.7627 58.0717 55.1644 58.8025C54.5662 59.5292 54.004 60.2881 53.4781 61.0751C52.9521 61.862 52.4702 62.6691 52.0246 63.5043C51.5789 64.3354 51.1733 65.1906 50.812 66.0619C50.4506 66.9332 50.1334 67.8246 49.8604 68.728C49.5833 69.6314 49.3545 70.5469 49.1698 71.4744C48.9851 72.4019 48.8485 73.3334 48.7562 74.273C48.6638 75.2125 48.6157 76.1561 48.6157 77.0997C48.6157 78.0473 48.6638 78.9868 48.7562 79.9304C48.8485 80.8699 48.9851 81.8015 49.1698 82.729C49.3545 83.6565 49.5833 84.572 49.8564 85.4754C50.1334 86.3788 50.4506 87.2662 50.812 88.1415C51.1733 89.0128 51.5749 89.868 52.0205 90.6991C52.4662 91.5343 52.9521 92.3414 53.4781 93.1283C54.004 93.9113 54.5662 94.6702 55.1644 95.4009C55.7627 96.1317 56.3971 96.8303 57.0636 97.4969C57.7342 98.1674 58.4328 98.8018 59.1636 99.4001C59.8943 99.9983 60.6492 100.56 61.4362 101.086C62.2231 101.612 63.0302 102.094 63.8654 102.54C64.6965 102.986 65.5517 103.391 66.423 103.753C67.2943 104.114 68.1857 104.431 69.0891 104.704C69.9925 104.981 70.908 105.21 71.8355 105.395C72.763 105.579 73.6945 105.716 74.6341 105.808C75.5736 105.901 76.5172 105.949 77.4608 105.949C78.4084 105.949 79.3479 105.901 80.2915 105.808C81.2311 105.716 82.1626 105.579 83.0901 105.395C84.0176 105.21 84.9331 104.981 85.8365 104.704C86.7399 104.431 87.6273 104.114 88.5026 103.753C89.3739 103.391 90.2291 102.986 91.0602 102.54C91.8954 102.098 92.7025 101.612 93.4894 101.086C94.2724 100.56 95.0313 99.9983 95.762 99.4001C96.4928 98.8018 97.1914 98.1674 97.862 97.5009C98.5285 96.8303 99.1629 96.1317 99.7612 95.4009C100.359 94.6702 100.922 93.9153 101.448 93.1283C101.974 92.3414 102.459 91.5343 102.901 90.6991C103.347 89.868 103.752 89.0128 104.114 88.1415C104.475 87.2662 104.792 86.3788 105.065 85.4754C105.342 84.572 105.571 83.6565 105.756 82.729C105.941 81.8015 106.077 80.8699 106.169 79.9304C106.262 78.9868 106.31 78.0473 106.31 77.0997C106.31 76.1561 106.262 75.2166 106.169 74.273C106.073 73.3334 105.937 72.4019 105.752 71.4744C105.563 70.5509 105.334 69.6355 105.061 68.732C104.784 67.8286 104.467 66.9413 104.106 66.0659C103.744 65.1946 103.339 64.3434 102.893 63.5083C102.447 62.6771 101.965 61.8701 101.44 61.0831C100.914 60.3001 100.351 59.5413 99.7531 58.8105C99.1549 58.0797 98.5205 57.3811 97.8539 56.7146C97.1834 56.044 96.4848 55.4136 95.758 54.8114C95.0272 54.2131 94.2684 53.651 93.4854 53.125C92.6984 52.603 91.8914 52.1172 91.0562 51.6715C90.2251 51.2258 89.3739 50.8203 88.4986 50.4589C87.6273 50.0975 86.7399 49.7803 85.8365 49.5033C84.9331 49.2303 84.0176 49.0014 83.0901 48.8127C82.1666 48.628 81.2311 48.4915 80.2915 48.3951C79.3519 48.3027 78.4124 48.2546 77.4648 48.2546ZM77.4648 91.8796C76.4971 91.8796 75.5335 91.7873 74.5819 91.5945C73.6303 91.4058 72.7068 91.1247 71.8114 90.7553C70.916 90.3819 70.0608 89.9282 69.2537 89.3902C68.4507 88.8521 67.7039 88.2378 67.0173 87.5512C66.3307 86.8646 65.7164 86.1178 65.1783 85.3108C64.6403 84.5037 64.1826 83.6525 63.8132 82.7571C63.4397 81.8617 63.1627 80.9342 62.97 79.9826C62.7813 79.031 62.6889 78.0714 62.6889 77.0997C62.6889 76.132 62.7813 75.1684 62.97 74.2168C63.1627 73.2652 63.4397 72.3417 63.8132 71.4463C64.1826 70.5509 64.6403 69.6957 65.1783 68.8886C65.7164 68.0856 66.3307 67.3388 67.0173 66.6522C67.7039 65.9656 68.4507 65.3512 69.2537 64.8132C70.0608 64.2752 70.916 63.8174 71.8114 63.448C72.7068 63.0746 73.6303 62.7976 74.5819 62.6049C75.5335 62.4161 76.4971 62.3238 77.4648 62.3238C78.4365 62.3238 79.3961 62.4161 80.3477 62.6049C81.3033 62.7976 82.2268 63.0746 83.1222 63.448C84.0176 63.8174 84.8688 64.2752 85.6759 64.8132C86.4829 65.3512 87.2297 65.9656 87.9163 66.6522C88.6029 67.3388 89.2173 68.0856 89.7553 68.8886C90.2933 69.6957 90.7471 70.5509 91.1205 71.4463C91.4899 72.3417 91.7709 73.2652 91.9596 74.2168C92.1524 75.1684 92.2447 76.132 92.2447 77.0997C92.2447 78.0714 92.1484 79.031 91.9596 79.9826C91.7669 80.9342 91.4899 81.8577 91.1164 82.7531C90.743 83.6525 90.2893 84.5037 89.7513 85.3067C89.2092 86.1138 88.5989 86.8606 87.9123 87.5472C87.2257 88.2338 86.4789 88.8441 85.6719 89.3862C84.8688 89.9242 84.0176 90.3779 83.1182 90.7513C82.2228 91.1247 81.2993 91.4018 80.3477 91.5945C79.3961 91.7832 78.4365 91.8796 77.4648 91.8796ZM77.4648 63.8375C76.5935 63.8375 75.7343 63.9218 74.879 64.0905C74.0238 64.2591 73.1967 64.5121 72.3896 64.8453C71.5866 65.1786 70.8197 65.5881 70.0969 66.07C69.3742 66.5558 68.7037 67.1059 68.0853 67.7202C67.471 68.3385 66.9209 69.0091 66.4351 69.7318C65.9533 70.4546 65.5437 71.2215 65.2104 72.0245C64.8772 72.8275 64.6242 73.6587 64.4556 74.5139C64.2869 75.3691 64.2026 76.2284 64.2026 77.0997C64.2026 77.971 64.2869 78.8343 64.4556 79.6895C64.6242 80.5447 64.8772 81.3718 65.2104 82.1789C65.5437 82.9819 65.9533 83.7488 66.4351 84.4716C66.9209 85.1943 67.471 85.8648 68.0853 86.4832C68.7037 87.0975 69.3742 87.6476 70.0969 88.1294C70.8197 88.6153 71.5866 89.0248 72.3896 89.3581C73.1967 89.6913 74.0238 89.9403 74.879 90.1129C75.7343 90.2816 76.5935 90.3659 77.4648 90.3659C78.3361 90.3659 79.1994 90.2816 80.0546 90.1129C80.9098 89.9403 81.737 89.6913 82.544 89.3581C83.3471 89.0248 84.114 88.6153 84.8367 88.1294C85.5594 87.6476 86.23 87.0975 86.8483 86.4832C87.4626 85.8648 88.0127 85.1943 88.4945 84.4716C88.9804 83.7488 89.3899 82.9819 89.7232 82.1789C90.0564 81.3718 90.3054 80.5447 90.478 79.6895C90.6467 78.8343 90.731 77.971 90.731 77.0997C90.731 76.2284 90.6467 75.3691 90.474 74.5139C90.3054 73.6587 90.0524 72.8315 89.7192 72.0285C89.3859 71.2215 88.9764 70.4586 88.4945 69.7358C88.0087 69.0091 87.4586 68.3385 86.8443 67.7242C86.226 67.1099 85.5594 66.5598 84.8327 66.074C84.1099 65.5922 83.3471 65.1826 82.54 64.8493C81.737 64.5161 80.9058 64.2631 80.0546 64.0945C79.1994 63.9218 78.3361 63.8375 77.4648 63.8375Z" fill="white"/>
</svg>
